<?xml version="1.0" encoding="utf-8"?><!DOCTYPE svg PUBLIC "-//W3C//DTD SVG 1.1//EN" "http://www.w3.org/Graphics/SVG/1.1/DTD/svg11.dtd"><svg version="1.1" id="Contours" xmlns="http://www.w3.org/2000/svg" xmlns:xlink="http://www.w3.org/1999/xlink" x="0px" y="0px" width="1023.294983px" height="1023.294983px" viewBox="-0.000004 -0.000012 1023.294983 1175.436768" enable-background="new 0 0 1023.294983 1023.294983" xml:space="preserve" stroke="black" fill="none" stroke-linecap='round' stroke-linejoin='round'><path class="selected"  fill="#000000" opacity="1.000000" stroke="none" 
 	d="
M684.294712 1079.438733 C697.603428 1077.772107 710.407139 1076.066297 723.222080 1074.448865 C738.315220 1072.544080 752.811802 1068.329236 767.169468 1063.464246 C784.182041 1057.699964 800.662998 1050.781507 815.980381 1041.335584 C817.213047 1040.575452 818.185581 1038.358655 818.197422 1036.810559 C818.345493 1017.255872 818.294712 997.699841 818.294712 978.144055 C818.294712 939.813489 818.293736 901.482923 818.295445 863.152356 C818.295933 853.879163 818.305332 853.999280 808.872349 854.407117 C798.017124 854.876477 787.143589 854.949353 776.292881 855.489514 C768.056797 855.899671 759.815586 856.538587 751.631870 857.530896 C747.116489 858.078382 746.494785 854.697278 746.463413 852.298596 C746.356480 844.109632 747.186680 835.913220 747.249180 827.716443 C747.392857 808.885632 747.405064 790.051770 747.212559 771.221814 C747.167759 766.837293 749.231236 765.544690 752.976353 765.441419 C753.642368 765.423108 754.309483 765.438733 754.976109 765.438733 C842.136387 765.438733 929.296787 765.438489 1016.457066 765.438977 C1022.850498 765.438977 1023.293613 765.866834 1023.294102 772.064710 C1023.295689 793.896497 1023.294712 815.728162 1023.294712 837.559949 C1023.294712 844.690320 1022.918980 845.189954 1015.709019 845.404920 C1010.047764 845.573743 1004.367100 845.659924 998.713169 845.396131 C983.374424 844.680676 972.286655 851.483899 964.277866 864.173841 C958.184238 873.828992 955.466099 884.694715 953.402500 895.645764 C950.467686 911.221326 950.184605 927.033704 950.229893 942.879651 C950.394444 1000.375012 950.219761 1057.871228 950.421055 1115.366345 C950.439365 1120.583142 948.874790 1121.700208 943.985386 1121.555066 C931.996738 1121.198987 919.946323 1120.792737 908.003086 1121.609876 C894.476963 1122.535169 881.056309 1124.912732 867.561558 1126.403455 C850.364658 1128.302869 834.234043 1134.183118 817.979282 1139.514905 C805.243443 1143.692273 792.913364 1149.168225 780.075474 1152.956922 C763.968906 1157.710340 747.637241 1161.857190 731.196690 1165.274182 C717.693760 1168.080701 703.917759 1169.662244 690.210606 1171.367566 C679.336094 1172.720471 668.398228 1173.683606 657.460117 1174.368665 C646.952671 1175.026868 636.376865 1175.774304 625.888950 1175.272473 C612.243076 1174.619519 598.632298 1172.961316 585.047520 1171.381970 C573.040623 1169.986096 561.016819 1168.502820 549.138462 1166.310437 C539.986790 1164.621350 530.996983 1161.955579 522.026768 1159.402600 C499.868565 1153.096204 478.368626 1144.740003 458.028843 1134.147473 C441.589878 1125.586682 426.303928 1114.729871 410.857334 1104.368543 C395.087559 1093.790296 381.369968 1080.703382 368.370762 1066.936292 C352.679722 1050.318372 338.749912 1032.267957 327.389378 1012.422864 C319.713963 999.015271 312.193760 985.423230 305.933018 971.323743 C296.709629 950.552258 288.736240 929.247693 284.250950 906.806043 C281.830479 894.695691 278.820530 882.703382 276.373020 870.597913 C275.545078 866.503064 275.487278 862.229138 275.329258 858.027600 C275.116428 852.370374 273.333347 850.439710 267.835667 850.439588 C190.841221 850.438245 113.845585 850.207898 36.853428 850.626233 C20.718174 850.713880 6.008946 839.803601 1.350987 824.560071 C0.615879 822.154431 0.358921 819.522595 0.339909 816.991712 C0.242313 803.993421 0.208653 790.993176 0.317051 777.995130 C0.444828 762.675672 15.158695 746.801526 30.238407 745.384168 C37.519962 744.699841 44.719486 743.025281 52.005680 742.534924 C63.148014 741.785291 66.991398 732.912488 68.136265 724.563733 C69.479740 714.766736 70.202274 704.806287 70.209232 694.916150 C70.328281 525.761731 70.294712 356.607373 70.294712 187.452954 C70.294712 186.453015 70.305851 185.453015 70.292423 184.453259 C70.262821 182.244763 70.660679 178.264112 70.109715 178.127393 C67.370213 177.447583 64.374973 177.662366 61.478123 177.775891 C46.935001 178.345838 32.019749 182.982373 18.273747 174.398694 C7.720615 167.808728 0.545475 158.729077 0.357456 145.729077 C0.104435 128.234021 -0.366848 110.699719 0.498539 93.243909 C1.225040 78.589429 14.968388 62.865949 30.007786 62.644208 C87.191380 61.801190 144.387180 61.805005 201.577793 61.400434 C209.441074 61.344830 217.299107 60.539624 225.162388 60.484479 C244.883823 60.346051 264.607822 60.326886 284.328953 60.483014 C295.192051 60.569043 306.058140 60.966260 316.910740 61.479444 C326.976231 61.955335 337.068455 62.393720 347.071812 63.528546 C361.615330 65.178479 376.102268 67.351636 390.590672 69.457410 C418.172215 73.466138 445.203648 79.704022 471.789402 88.228589 C490.201267 94.132276 508.047764 101.154553 525.660191 109.098035 C546.753819 118.611646 566.425999 130.454846 585.335972 143.567395 C595.204441 150.410230 604.357822 158.344434 613.448277 166.230481 C621.047092 172.822644 628.459080 179.714429 635.295750 187.083997 C651.576817 204.634229 666.398838 223.384290 678.222935 244.270032 C685.609287 257.317273 693.338902 270.331006 699.030064 284.136487 C706.131504 301.362378 711.866489 319.219861 717.107700 337.121900 C721.053989 350.601148 723.295078 364.579602 726.290440 378.336865 C726.325108 378.496045 726.273594 378.672376 726.297764 378.835523 C728.022984 390.456250 728.138340 389.941297 739.883823 392.565076 C755.658848 396.089124 771.426792 399.892285 786.839512 404.719556 C801.073032 409.177564 814.908482 414.960950 828.756992 420.561658 C832.796299 422.195203 833.521641 420.761243 833.256992 417.465894 C832.677403 410.247022 832.198521 402.996472 831.073032 395.854260 C830.430698 391.777844 831.704746 390.420789 835.490147 390.428479 C848.655796 390.455091 861.821568 390.438733 874.987217 390.438733 C893.319248 390.438733 911.652134 390.537610 929.982456 390.360181 C933.919224 390.322156 935.405918 391.101514 935.398960 395.505445 C935.259678 484.498731 935.296665 573.492322 935.290562 662.485852 C935.290196 668.552503 934.368809 669.438733 928.283970 669.438733 C905.618931 669.438733 882.954014 669.438733 860.288975 669.438733 C854.221226 669.438733 853.494663 668.539319 853.263340 662.470593 C852.520664 642.984998 850.635410 623.567151 845.123936 604.837781 C841.348911 592.009473 836.922764 579.182752 831.037510 567.216199 C824.510044 553.943738 815.992222 541.748242 806.086216 530.470716 C794.286289 517.037366 780.475864 506.267102 765.334873 497.216992 C756.371250 491.859143 746.585972 487.842175 737.040562 483.507642 C733.229160 481.776929 731.016880 483.689527 730.318272 488.800061 C729.860996 492.144788 729.743076 495.536328 729.273838 498.878919 C727.661533 510.361951 726.308506 521.896924 724.200108 533.290601 C721.953892 545.429578 719.455357 557.567395 716.160679 569.454419 C712.617588 582.237805 708.622715 594.968762 703.719761 607.282361 C698.597080 620.147595 692.502964 632.664197 686.212437 645.016736 C677.241001 662.633435 666.391514 679.092908 654.459995 694.890637 C641.816807 711.630628 627.824436 727.127088 612.624058 741.499890 C594.507420 758.630139 574.713352 773.662122 553.254246 786.405652 C543.384556 792.266858 533.620091 798.451062 523.248020 803.288220 C505.246433 811.683484 487.331028 820.388806 467.954075 825.508801 C454.183323 829.147595 440.549717 833.326917 426.957371 837.591443 C425.398777 838.080579 423.282810 840.850110 423.489597 842.259412 C424.974766 852.379285 426.232945 862.636487 429.011143 872.439710 C433.894260 889.670423 438.767307 907.040174 445.597569 923.543347 C452.015415 939.049939 460.379002 953.852918 468.931919 968.348645 C480.223606 987.485974 494.484654 1004.488172 510.926609 1019.427258 C530.248264 1036.982678 551.624058 1051.382825 575.827183 1061.802869 C590.454807 1068.100476 605.511753 1072.536023 620.817112 1076.237683 C629.155247 1078.254041 637.922031 1078.609632 646.525303 1079.382092 C653.361607 1079.995984 660.242100 1080.336438 667.104893 1080.366223 C672.666660 1080.390515 678.231358 1079.772107 684.294712 1079.438733 M276.294712 719.938733 C277.961399 711.969983 279.365330 703.935193 281.346592 696.045423 C286.229954 676.599256 290.374180 656.883924 296.716160 637.912244 C302.505650 620.593396 310.247532 603.850110 318.116612 587.323438 C327.581333 567.445691 338.611729 548.366834 352.287754 530.996778 C363.102390 517.260877 373.407566 503.006238 385.353611 490.313306 C396.480991 478.490064 409.300022 468.218457 421.693394 457.637464 C436.924412 444.633740 453.941624 434.153089 471.584934 424.842053 C483.555943 418.524487 495.907871 412.743360 508.551121 407.936658 C521.531590 403.001721 535.038548 399.424817 548.387791 395.500684 C553.293797 394.058545 555.088902 391.932446 554.288487 386.817639 C553.652988 382.756604 553.272434 378.623181 552.237827 374.663159 C548.786411 361.452588 545.253635 348.258618 541.448338 335.146436 C536.910862 319.511426 530.118321 304.806104 522.033237 290.709790 C513.299839 275.483167 503.265171 261.171155 490.914707 248.630200 C485.255589 242.883985 479.495029 237.169568 473.262974 232.073560 C466.037998 226.165662 458.664158 220.218457 450.599766 215.609754 C438.287327 208.573316 425.559727 202.139234 412.570164 196.450147 C401.726170 191.700879 390.469456 187.525403 379.005650 184.650586 C363.633457 180.795545 347.949375 178.033521 332.278782 175.567029 C319.767735 173.597913 307.102085 172.372571 294.457371 171.566358 C284.500279 170.931409 274.468540 171.326612 264.473423 171.482984 C258.942356 171.569470 253.363621 171.738965 247.908421 172.554212 C243.514622 173.210889 239.680759 175.330213 237.468357 179.715466 C233.186924 188.201978 232.473179 197.538342 232.461582 206.568616 C232.236607 381.858899 232.294712 557.149487 232.294712 732.440076 C232.294712 733.273206 231.951023 734.383313 232.358006 734.888440 C233.676426 736.524671 235.229527 739.189099 236.764622 739.239026 C248.083103 739.608167 259.420811 739.523084 270.747593 739.314588 C271.946140 739.292615 273.937290 737.708264 274.153416 736.579236 C275.141636 731.418347 275.628025 726.161267 276.294712 719.938733 M536.794651 577.438733 C539.961338 567.920300 543.481907 558.501233 546.190891 548.854260 C548.679844 539.990735 550.370457 530.897595 552.270176 521.875623 C553.726902 514.956983 555.003330 507.999097 556.257908 501.040235 C556.499058 499.702466 556.265781 498.279187 556.251316 496.895337 C554.786472 497.076489 552.957554 496.756055 551.912022 497.514905 C538.946812 506.924695 525.555759 515.853467 513.352329 526.180066 C498.168247 539.029004 485.737766 554.659009 474.449436 570.965589 C458.074863 594.619519 445.792027 620.505139 436.429417 647.640271 C430.024754 666.202527 425.009556 685.235242 422.331883 704.774060 C422.055271 706.792493 422.294224 708.881604 422.293919 710.938001 C423.809727 710.104871 425.318821 709.259168 426.845066 708.445569 C427.386753 708.156873 428.030552 708.032361 428.525364 707.686536 C440.801853 699.104016 453.683628 691.243665 465.142674 681.679212 C475.093235 673.373792 483.660984 663.345105 492.427280 653.703015 C505.524082 639.297742 515.623386 622.797254 524.219090 605.417371 C528.649937 596.458508 532.294773 587.110791 536.794651 577.438733 z"/><path class="selected"  fill="#000000" opacity="1.000000" stroke="none" 
 	d="
M892.544712 261.688733 C882.961338 279.898999 874.194859 298.187512 864.060947 315.684155 C858.821812 324.729871 851.387241 332.569104 844.496494 340.567395 C840.685825 344.990369 836.083897 348.774182 831.604282 352.569470 C821.741612 360.925427 802.641392 360.657788 791.594151 352.300733 C781.870152 344.944653 771.627598 338.250562 762.145908 330.604566 C753.039341 323.261243 748.380772 313.173841 748.381748 301.421582 C748.382603 292.318128 752.517490 284.500440 757.872715 277.407056 C769.316929 262.248487 777.098301 245.210706 783.189732 227.411756 C787.047276 216.139966 789.987095 204.546704 793.110142 193.035657 C793.938755 189.981336 794.375279 186.657422 794.095737 183.537549 C793.964512 182.073010 791.879917 179.850965 790.387730 179.579053 C761.837315 174.375745 742.571934 157.460340 730.395664 131.898389 C725.923985 122.511121 723.598667 112.356885 723.296665 101.856275 C722.901890 88.130719 723.504063 74.560925 728.256748 61.427411 C733.781406 46.160626 741.830112 32.859570 754.637852 22.374646 C763.875034 14.812848 773.861362 9.158978 785.025425 5.105023 C798.893223 0.069257 813.309483 -0.870990 827.547276 0.685224 C848.695591 2.996747 867.308750 11.513379 883.597080 25.891126 C898.400425 38.957929 908.283726 55.053845 914.852207 72.942090 C919.979649 86.905652 923.762241 101.627027 923.367466 116.946973 C923.238071 121.961926 924.534458 127.039807 924.179112 132.017591 C923.359165 143.504773 922.282871 154.947217 920.661411 166.409192 C917.595860 188.077344 911.194737 208.765759 905.137486 229.575879 C902.397373 238.990064 897.951817 247.906690 894.304600 257.058911 C893.733555 258.491834 893.294712 259.977490 892.544712 261.688733 z"/></svg>